<svg width="19" height="19" viewBox="0 0 19 19" fill="none" xmlns="http://www.w3.org/2000/svg">
<path fill-rule="evenodd" clip-rule="evenodd" d="M18.7071 4.29289C19.0976 4.68342 19.0976 5.31658 18.7071 5.70711L5.70711 18.7071C5.51957 18.8946 5.26522 19 5 19L1 19C0.734783 19 0.480429 18.8946 0.292893 18.7071C0.105356 18.5196 -1.34869e-06 18.2652 0 18L3.32961e-06 14C3.4982e-06 13.7348 0.10536 13.4804 0.292896 13.2929L13.2929 0.292893C13.6834 -0.0976311 14.3166 -0.0976311 14.7071 0.292893C15.0976 0.683418 15.0976 1.31658 14.7071 1.70711L2 14.4142L2 17L4.58579 17L17.2929 4.29289C17.6834 3.90237 18.3166 3.90237 18.7071 4.29289Z" fill="black"/>
<path fill-rule="evenodd" clip-rule="evenodd" d="M13.2929 0.292893C13.6834 -0.0976311 14.3166 -0.0976311 14.7071 0.292893L18.7071 4.29289C19.0976 4.68342 19.0976 5.31658 18.7071 5.70711C18.3166 6.09763 17.6834 6.09763 17.2929 5.70711L13.2929 1.70711C12.9024 1.31658 12.9024 0.683417 13.2929 0.292893Z" fill="black"/>
<path fill-rule="evenodd" clip-rule="evenodd" d="M14.2929 8.70711L10.2929 4.70711L11.7071 3.29289L15.7071 7.29289L14.2929 8.70711Z" fill="black"/>
</svg>
