<svg width="99" height="99" viewBox="0 0 99 99" fill="none" xmlns="http://www.w3.org/2000/svg">
<path d="M48.8196 98.175C48.2847 98.175 47.762 97.9626 47.3741 97.5788C46.8922 97.097 46.6798 96.4028 46.8146 95.7372L49.7017 81.3026C49.7833 80.9025 49.9712 80.539 50.2611 80.2573L82.0229 48.4971C84.4077 46.1125 88.2994 46.1125 90.6842 48.4971L96.4583 54.271C98.8472 56.6597 98.8472 60.543 96.4583 62.9317L64.6965 94.6919C64.4147 94.9777 64.0513 95.1696 63.6511 95.2513L49.2157 98.1382C49.0851 98.1627 48.9503 98.175 48.8196 98.175ZM53.5892 82.7032L51.4249 93.5281L62.2504 91.364L93.5753 60.0407C94.3716 59.2445 94.3716 57.95 93.5753 57.1538L87.8012 51.38C87.0049 50.5837 85.7104 50.5837 84.9141 51.38L53.5892 82.7032ZM63.255 93.2464H63.2958H63.255Z" fill="#F6F6F6"/>
<path d="M39.0437 85.925H10.4589C4.82766 85.925 0.25 81.3476 0.25 75.7167V22.6333C0.25 17.0024 4.82766 12.425 10.4589 12.425H18.626C19.753 12.425 20.6677 13.3397 20.6677 14.4667C20.6677 15.5937 19.753 16.5083 18.626 16.5083H10.4589C7.08177 16.5083 4.33355 19.2564 4.33355 22.6333V75.7167C4.33355 79.0936 7.08177 81.8417 10.4589 81.8417H39.0437C40.1708 81.8417 41.0855 82.7564 41.0855 83.8834C41.0855 85.0104 40.1708 85.925 39.0437 85.925Z" fill="#F6F6F6"/>
<path d="M67.6285 49.175C66.5015 49.175 65.5868 48.2603 65.5868 47.1333V22.6333C65.5868 19.2564 62.8385 16.5083 59.4614 16.5083H51.2943C50.1673 16.5083 49.2526 15.5937 49.2526 14.4667C49.2526 13.3397 50.1673 12.425 51.2943 12.425H59.4614C65.0926 12.425 69.6703 17.0024 69.6703 22.6333V47.1333C69.6703 48.2603 68.7556 49.175 67.6285 49.175Z" fill="#F6F6F6"/>
<path d="M47.2108 24.675H22.7095C19.3325 24.675 16.5842 21.9269 16.5842 18.55V10.3833C16.5842 9.25633 17.4989 8.34166 18.626 8.34166H24.9555C25.9029 3.68666 30.0313 0.174988 34.9602 0.174988C39.889 0.174988 44.0175 3.68666 44.9649 8.34166H51.2944C52.4214 8.34166 53.3361 9.25633 53.3361 10.3833V18.55C53.3361 21.9269 50.5879 24.675 47.2108 24.675ZM20.6678 12.425V18.55C20.6678 19.6729 21.5866 20.5917 22.7095 20.5917H47.2108C48.3338 20.5917 49.2526 19.6729 49.2526 18.55V12.425H43.1273C42.0002 12.425 41.0855 11.5103 41.0855 10.3833C41.0855 7.00641 38.3373 4.25832 34.9602 4.25832C31.5831 4.25832 28.8349 7.00641 28.8349 10.3833C28.8349 11.5103 27.9202 12.425 26.7931 12.425H20.6678Z" fill="#F6F6F6"/>
<path d="M55.378 36.9249H14.5425C13.4154 36.9249 12.5007 36.0103 12.5007 34.8833C12.5007 33.7563 13.4154 32.8416 14.5425 32.8416H55.378C56.505 32.8416 57.4197 33.7563 57.4197 34.8833C57.4197 36.0103 56.505 36.9249 55.378 36.9249Z" fill="#F6F6F6"/>
<path d="M55.378 49.175H14.5425C13.4154 49.175 12.5007 48.2603 12.5007 47.1333C12.5007 46.0063 13.4154 45.0916 14.5425 45.0916H55.378C56.505 45.0916 57.4197 46.0063 57.4197 47.1333C57.4197 48.2603 56.505 49.175 55.378 49.175Z" fill="#F6F6F6"/>
<path d="M55.378 61.425H14.5425C13.4154 61.425 12.5007 60.5103 12.5007 59.3833C12.5007 58.2563 13.4154 57.3417 14.5425 57.3417H55.378C56.505 57.3417 57.4197 58.2563 57.4197 59.3833C57.4197 60.5103 56.505 61.425 55.378 61.425Z" fill="#F6F6F6"/>
</svg>
